# xmcd CD database file
#
# Track frame offsets:
#	150
#	17029
#	30908
#	40385
#	50117
#	63021
#	75850
#	87604
#	99918
#	112087
#	122232
#	134119
#	146545
#	157006
#	170817
#	182451
#	193321
#	203733
#	215083
#	225820
#	237168
#	251659
#
# Disc length: 3503 seconds
#
# Revision: 1
# Processed by: cddbd v1.5.2PL0 Copyright (c) Steve Scherf et al.
# Submitted via: CDex 1.51
#
DISCID=360dad16
DTITLE=Patsy Cline - The Heart Of A Legend
DYEAR=2003
DGENRE=Country
TTITLE0=Faded Love
TTITLE1=You Belong to Me
TTITLE2=Back In Baby's Armas
TTITLE3=True Love
TTITLE4=Someday (You'll Want Me To Want You)
TTITLE5=I Fall to Pieces
TTITLE6=Sweet Dreams (Of You)
TTITLE7=Crazy
TTITLE8=He Called Me Baby
TTITLE9=I Love You So Much (It Hurts)
TTITLE10=Walkin' After Midnight
TTITLE11=Poor Man's Roses (Or A Rich Man's Gold)
TTITLE12=Three Cigarettes In An Ashtray
TTITLE13=A Church, A Courtroom and Then Goodbye
TTITLE14=I've Loved And Lost Again
TTITLE15=I Cried All The Way To The Altar
TTITLE16=Pick Me Up (On Your Way Down)
TTITLE17=Dear God
TTITLE18=Honky tonk Merry-Go-Round
TTITLE19=Just Out Of Reach
TTITLE20=Then You'll Know
TTITLE21=A Stranger In My Arms
EXTD=YEAR: 2003
EXTT0=
EXTT1=
EXTT2=
EXTT3=
EXTT4=
EXTT5=
EXTT6=
EXTT7=
EXTT8=
EXTT9=
EXTT10=
EXTT11=
EXTT12=
EXTT13=
EXTT14=
EXTT15=
EXTT16=
EXTT17=
EXTT18=
EXTT19=
EXTT20=
EXTT21=
PLAYORDER=
